<svg version="1.1" xmlns="http://www.w3.org/2000/svg" xmlns:xlink="http://www.w3.org/1999/xlink" width="688" height="675"><defs/><g><g transform="translate(-110,2) scale(1,1)"><rect fill="#C0C0C0" stroke="none" x="375" y="359" width="124" height="102" opacity="0.2"/></g><g transform="translate(-110,2) scale(1,1)"><rect fill="#ffffff" stroke="none" x="368" y="352" width="124" height="102"/></g><g transform="translate(-110,2) scale(1,1)"><path fill="none" stroke="#000000" d="M 368 352 L 492 352 L 492 454 L 368 454 L 368 352 Z Z" stroke-miterlimit="10"/></g><g transform="translate(-110,2) scale(1,1)"><path fill="none" stroke="#000000" d="M 368 377 L 492 377" stroke-miterlimit="10"/></g><g transform="translate(-110,2) scale(1,1)"><path fill="none" stroke="#000000" d="M 368 445 L 492 445" stroke-miterlimit="10"/></g><g transform="translate(-110,2) scale(1,1)"><g><path fill="none" stroke="none"/><text fill="#000000" stroke="none" font-family="Arial" font-size="13px" font-style="normal" font-weight="bold" text-decoration="none" x="416.5" y="371.5">User</text></g></g><g transform="translate(-110,2) scale(1,1)"><g><path fill="none" stroke="none"/><text fill="#000000" stroke="none" font-family="Arial" font-size="13px" font-style="normal" font-weight="normal" text-decoration="none" x="373" y="394.5">-userName: String</text></g></g><g transform="translate(-110,2) scale(1,1)"><g><path fill="none" stroke="none"/><text fill="#000000" stroke="none" font-family="Arial" font-size="13px" font-style="normal" font-weight="normal" text-decoration="none" x="373" y="409.5">-userID: String</text></g></g><g transform="translate(-110,2) scale(1,1)"><g><path fill="none" stroke="none"/><text fill="#000000" stroke="none" font-family="Arial" font-size="13px" font-style="normal" font-weight="normal" text-decoration="none" x="373" y="424.5">-password: String</text></g></g><g transform="translate(-110,2) scale(1,1)"><g><path fill="none" stroke="none"/><text fill="#000000" stroke="none" font-family="Arial" font-size="13px" font-style="normal" font-weight="normal" text-decoration="none" x="373" y="439.5">-profile: UserProfile</text></g></g><g transform="translate(-110,2) scale(1,1)"><rect fill="#C0C0C0" stroke="none" x="631" y="239" width="164" height="207" opacity="0.2"/></g><g transform="translate(-110,2) scale(1,1)"><rect fill="#ffffff" stroke="none" x="624" y="232" width="164" height="207"/></g><g transform="translate(-110,2) scale(1,1)"><path fill="none" stroke="#000000" d="M 624 232 L 788 232 L 788 439 L 624 439 L 624 232 Z Z" stroke-miterlimit="10"/></g><g transform="translate(-110,2) scale(1,1)"><path fill="none" stroke="#000000" d="M 624 257 L 788 257" stroke-miterlimit="10"/></g><g transform="translate(-110,2) scale(1,1)"><path fill="none" stroke="#000000" d="M 624 430 L 788 430" stroke-miterlimit="10"/></g><g transform="translate(-110,2) scale(1,1)"><g><path fill="none" stroke="none"/><text fill="#000000" stroke="none" font-family="Arial" font-size="13px" font-style="normal" font-weight="bold" text-decoration="none" x="687.5" y="251.5">Article</text></g></g><g transform="translate(-110,2) scale(1,1)"><g><path fill="none" stroke="none"/><text fill="#000000" stroke="none" font-family="Arial" font-size="13px" font-style="normal" font-weight="normal" text-decoration="none" x="629" y="274.5">-author: User</text></g></g><g transform="translate(-110,2) scale(1,1)"><g><path fill="none" stroke="none"/><text fill="#000000" stroke="none" font-family="Arial" font-size="13px" font-style="normal" font-weight="normal" text-decoration="none" x="629" y="289.5">-title: String</text></g></g><g transform="translate(-110,2) scale(1,1)"><g><path fill="none" stroke="none"/><text fill="#000000" stroke="none" font-family="Arial" font-size="13px" font-style="normal" font-weight="normal" text-decoration="none" x="629" y="304.5">-body: String</text></g></g><g transform="translate(-110,2) scale(1,1)"><g><path fill="none" stroke="none"/><text fill="#000000" stroke="none" font-family="Arial" font-size="13px" font-style="normal" font-weight="normal" text-decoration="none" x="629" y="319.5">-comment: list&lt;Comment&gt;</text></g></g><g transform="translate(-110,2) scale(1,1)"><g><path fill="none" stroke="none"/><text fill="#000000" stroke="none" font-family="Arial" font-size="13px" font-style="normal" font-weight="normal" text-decoration="none" x="629" y="334.5">-picture: Img</text></g></g><g transform="translate(-110,2) scale(1,1)"><g><path fill="none" stroke="none"/><text fill="#000000" stroke="none" font-family="Arial" font-size="13px" font-style="normal" font-weight="normal" text-decoration="none" x="629" y="349.5">-date: Date</text></g></g><g transform="translate(-110,2) scale(1,1)"><g><path fill="none" stroke="none"/><text fill="#000000" stroke="none" font-family="Arial" font-size="13px" font-style="normal" font-weight="normal" text-decoration="none" x="629" y="364.5">-tag: list&lt;String&gt;</text></g></g><g transform="translate(-110,2) scale(1,1)"><g><path fill="none" stroke="none"/><text fill="#000000" stroke="none" font-family="Arial" font-size="13px" font-style="normal" font-weight="normal" text-decoration="none" x="629" y="379.5">-category: String</text></g></g><g transform="translate(-110,2) scale(1,1)"><g><path fill="none" stroke="none"/><text fill="#000000" stroke="none" font-family="Arial" font-size="13px" font-style="normal" font-weight="normal" text-decoration="none" x="629" y="394.5">-brief: String</text></g></g><g transform="translate(-110,2) scale(1,1)"><g><path fill="none" stroke="none"/><text fill="#000000" stroke="none" font-family="Arial" font-size="13px" font-style="normal" font-weight="normal" text-decoration="none" x="629" y="409.5">-numViews: Number</text></g></g><g transform="translate(-110,2) scale(1,1)"><g><path fill="none" stroke="none"/><text fill="#000000" stroke="none" font-family="Arial" font-size="13px" font-style="normal" font-weight="normal" text-decoration="none" x="629" y="424.5">-articleID: String</text></g></g><g transform="translate(-110,2) scale(1,1)"><rect fill="#C0C0C0" stroke="none" x="127" y="559" width="118" height="87" opacity="0.2"/></g><g transform="translate(-110,2) scale(1,1)"><rect fill="#ffffff" stroke="none" x="120" y="552" width="118" height="87"/></g><g transform="translate(-110,2) scale(1,1)"><path fill="none" stroke="#000000" d="M 120 552 L 238 552 L 238 639 L 120 639 L 120 552 Z Z" stroke-miterlimit="10"/></g><g transform="translate(-110,2) scale(1,1)"><path fill="none" stroke="#000000" d="M 120 577 L 238 577" stroke-miterlimit="10"/></g><g transform="translate(-110,2) scale(1,1)"><path fill="none" stroke="#000000" d="M 120 630 L 238 630" stroke-miterlimit="10"/></g><g transform="translate(-110,2) scale(1,1)"><g><path fill="none" stroke="none"/><text fill="#000000" stroke="none" font-family="Arial" font-size="13px" font-style="normal" font-weight="bold" text-decoration="none" x="147" y="571.5">UserProfile</text></g></g><g transform="translate(-110,2) scale(1,1)"><g><path fill="none" stroke="none"/><text fill="#000000" stroke="none" font-family="Arial" font-size="13px" font-style="normal" font-weight="normal" text-decoration="none" x="125" y="594.5">-name: String</text></g></g><g transform="translate(-110,2) scale(1,1)"><g><path fill="none" stroke="none"/><text fill="#000000" stroke="none" font-family="Arial" font-size="13px" font-style="normal" font-weight="normal" text-decoration="none" x="125" y="609.5">-userIntro: String</text></g></g><g transform="translate(-110,2) scale(1,1)"><g><path fill="none" stroke="none"/><text fill="#000000" stroke="none" font-family="Arial" font-size="13px" font-style="normal" font-weight="normal" text-decoration="none" x="125" y="624.5">-profilePic: Img</text></g></g><g transform="translate(-110,2) scale(1,1)"><rect fill="#C0C0C0" stroke="none" x="359" y="15" width="145" height="147" opacity="0.2"/></g><g transform="translate(-110,2) scale(1,1)"><rect fill="#ffffff" stroke="none" x="352" y="8" width="145" height="147"/></g><g transform="translate(-110,2) scale(1,1)"><path fill="none" stroke="#000000" d="M 352 8 L 497 8 L 497 155 L 352 155 L 352 8 Z Z" stroke-miterlimit="10"/></g><g transform="translate(-110,2) scale(1,1)"><path fill="none" stroke="#000000" d="M 352 33 L 497 33" stroke-miterlimit="10"/></g><g transform="translate(-110,2) scale(1,1)"><path fill="none" stroke="#000000" d="M 352 146 L 497 146" stroke-miterlimit="10"/></g><g transform="translate(-110,2) scale(1,1)"><g><path fill="none" stroke="none"/><text fill="#000000" stroke="none" font-family="Arial" font-size="13px" font-style="normal" font-weight="bold" text-decoration="none" x="411.5" y="27.5">Blog</text></g></g><g transform="translate(-110,2) scale(1,1)"><g><path fill="none" stroke="none"/><text fill="#000000" stroke="none" font-family="Arial" font-size="13px" font-style="normal" font-weight="normal" text-decoration="none" x="357" y="50.5">-user: User</text></g></g><g transform="translate(-110,2) scale(1,1)"><g><path fill="none" stroke="none"/><text fill="#000000" stroke="none" font-family="Arial" font-size="13px" font-style="normal" font-weight="normal" text-decoration="none" x="357" y="65.5">-articles: List&lt;Article&gt;</text></g></g><g transform="translate(-110,2) scale(1,1)"><g><path fill="none" stroke="none"/><text fill="#000000" stroke="none" font-family="Arial" font-size="13px" font-style="normal" font-weight="normal" text-decoration="none" x="357" y="80.5">-blogName: String</text></g></g><g transform="translate(-110,2) scale(1,1)"><g><path fill="none" stroke="none"/><text fill="#000000" stroke="none" font-family="Arial" font-size="13px" font-style="normal" font-weight="normal" text-decoration="none" x="357" y="95.5">-blogIntro: String</text></g></g><g transform="translate(-110,2) scale(1,1)"><g><path fill="none" stroke="none"/><text fill="#000000" stroke="none" font-family="Arial" font-size="13px" font-style="normal" font-weight="normal" text-decoration="none" x="357" y="110.5">-tag: list&lt;Article&gt;</text></g></g><g transform="translate(-110,2) scale(1,1)"><g><path fill="none" stroke="none"/><text fill="#000000" stroke="none" font-family="Arial" font-size="13px" font-style="normal" font-weight="normal" text-decoration="none" x="357" y="125.5">-category: list&lt;Article&gt;</text></g></g><g transform="translate(-110,2) scale(1,1)"><g><path fill="none" stroke="none"/><text fill="#000000" stroke="none" font-family="Arial" font-size="13px" font-style="normal" font-weight="normal" text-decoration="none" x="357" y="140.5">-blogID: String</text></g></g><g transform="translate(-110,2) scale(1,1)"><rect fill="#C0C0C0" stroke="none" x="647" y="583" width="113" height="87" opacity="0.2"/></g><g transform="translate(-110,2) scale(1,1)"><rect fill="#ffffff" stroke="none" x="640" y="576" width="113" height="87"/></g><g transform="translate(-110,2) scale(1,1)"><path fill="none" stroke="#000000" d="M 640 576 L 753 576 L 753 663 L 640 663 L 640 576 Z Z" stroke-miterlimit="10"/></g><g transform="translate(-110,2) scale(1,1)"><path fill="none" stroke="#000000" d="M 640 601 L 753 601" stroke-miterlimit="10"/></g><g transform="translate(-110,2) scale(1,1)"><path fill="none" stroke="#000000" d="M 640 654 L 753 654" stroke-miterlimit="10"/></g><g transform="translate(-110,2) scale(1,1)"><g><path fill="none" stroke="none"/><text fill="#000000" stroke="none" font-family="Arial" font-size="13px" font-style="normal" font-weight="bold" text-decoration="none" x="668.5" y="595.5">Comment</text></g></g><g transform="translate(-110,2) scale(1,1)"><g><path fill="none" stroke="none"/><text fill="#000000" stroke="none" font-family="Arial" font-size="13px" font-style="normal" font-weight="normal" text-decoration="none" x="645" y="618.5">-user: User</text></g></g><g transform="translate(-110,2) scale(1,1)"><g><path fill="none" stroke="none"/><text fill="#000000" stroke="none" font-family="Arial" font-size="13px" font-style="normal" font-weight="normal" text-decoration="none" x="645" y="633.5">-comment: String</text></g></g><g transform="translate(-110,2) scale(1,1)"><g><path fill="none" stroke="none"/><text fill="#000000" stroke="none" font-family="Arial" font-size="13px" font-style="normal" font-weight="normal" text-decoration="none" x="645" y="648.5">-articleID: String</text></g></g><g transform="translate(-110,2) scale(1,1)"><path fill="none" stroke="#000000" d="M 696 576 L 696 439" stroke-miterlimit="10"/></g><g transform="translate(-110,2) scale(1,1)"><path fill="#FFFFFF" stroke="none" d="M 700.209517756016 449.16267485762415 L 696 439 L 691.790482243984 449.16267485762415 L 696 461"/></g><g transform="translate(-110,2) scale(1,1)"><path fill="none" stroke="#000000" d="M 700.209517756016 449.16267485762415 L 696 439 L 691.790482243984 449.16267485762415 L 696 461 L 700.209517756016 449.16267485762415" stroke-miterlimit="10"/></g><g transform="translate(-110,2) scale(1,1)"><path fill="none" stroke="#000000" d="M 424 352 L 424 155" stroke-miterlimit="10"/></g><g transform="translate(-110,2) scale(1,1)"><path fill="#FFFFFF" stroke="none" d="M 428.209517756016 165.16267485762415 L 424 155 L 419.790482243984 165.16267485762415 L 424 177"/></g><g transform="translate(-110,2) scale(1,1)"><path fill="none" stroke="#000000" d="M 428.209517756016 165.16267485762415 L 424 155 L 419.790482243984 165.16267485762415 L 424 177 L 428.209517756016 165.16267485762415" stroke-miterlimit="10"/></g><g transform="translate(-110,2) scale(1,1)"><path fill="none" stroke="#000000" d="M 492 387 L 624 387" stroke-miterlimit="10"/></g><g transform="translate(-110,2) scale(1,1)"><path fill="#FFFFFF" stroke="none" d="M 613.8373251423759 391.209517756016 L 624 387 L 613.8373251423758 382.790482243984 L 602 387"/></g><g transform="translate(-110,2) scale(1,1)"><path fill="none" stroke="#000000" d="M 613.8373251423759 391.209517756016 L 624 387 L 613.8373251423758 382.790482243984 L 602 387 L 613.8373251423759 391.209517756016" stroke-miterlimit="10"/></g><g transform="translate(-110,2) scale(1,1)"><path fill="none" stroke="#000000" d="M 493 454 L 642 575" stroke-miterlimit="10"/></g><g transform="translate(-110,2) scale(1,1)"><path fill="#FFFFFF" stroke="none" d="M 631.4573213539701 571.8612220584208 L 642 575 L 636.764651604651 565.3257492703922 L 624.921986594409 561.1312777041844"/></g><g transform="translate(-110,2) scale(1,1)"><path fill="none" stroke="#000000" d="M 631.4573213539701 571.8612220584208 L 642 575 L 636.764651604651 565.3257492703922 L 624.921986594409 561.1312777041844 L 631.4573213539701 571.8612220584208" stroke-miterlimit="10"/></g><g transform="translate(-110,2) scale(1,1)"><path fill="none" stroke="#000000" d="M 237 551 L 367 451" stroke-miterlimit="10"/></g><g transform="translate(-110,2) scale(1,1)"><path fill="#FFFFFF" stroke="none" d="M 361.5114083882077 460.5328569756901 L 367 451 L 356.3782318405461 453.85972746373005 L 349.5622722396988 464.41363673869324"/></g><g transform="translate(-110,2) scale(1,1)"><path fill="none" stroke="#000000" d="M 361.5114083882077 460.5328569756901 L 367 451 L 356.3782318405461 453.85972746373005 L 349.5622722396988 464.41363673869324 L 361.5114083882077 460.5328569756901" stroke-miterlimit="10"/></g><g transform="translate(-110,2) scale(1,1)"><path fill="none" stroke="#000000" d="M 623 260 L 498 148" stroke-miterlimit="10"/></g><g transform="translate(-110,2) scale(1,1)"><path fill="#FFFFFF" stroke="none" d="M 508.37797589344956 151.64658968832248 L 498 148 L 502.75980883243096 157.91686542606647 L 514.3850201169984 162.68097802483055"/></g><g transform="translate(-110,2) scale(1,1)"><path fill="none" stroke="#000000" d="M 508.37797589344956 151.64658968832248 L 498 148 L 502.75980883243096 157.91686542606647 L 514.3850201169984 162.68097802483055 L 508.37797589344956 151.64658968832248" stroke-miterlimit="10"/></g></g></svg>